<?xml version="1.0" encoding="UTF-8"?>
<svg id="_图层_2" data-name=" 图层 2" xmlns="http://www.w3.org/2000/svg" viewBox="0 0 137.78 148.61">
  <defs>
    <style>
      .cls-1 {
        stroke-linecap: round;
        stroke-linejoin: round;
      }

      .cls-1, .cls-2 {
        fill: none;
        stroke: #231815;
        stroke-width: 2px;
      }

      .cls-2 {
        stroke-miterlimit: 10;
      }

      .cls-3 {
        fill: #69b94b;
      }

      .cls-4 {
        fill: #231815;
      }
    </style>
  </defs>
  <g>
    <path class="cls-3" d="m102.8,34.85c2.2,4.94,15.54-1.59,13-6.36-2.2-4.93-15.54,1.59-13,6.36Zm3.17,53.24l.02.08c-11.08,25.67-16.07,35.6-28.28,59.14h0c-17.82-11.64-55.12-42.11-64.09-59.59C5.57,72.82-2.99,41.14,3.02,24.5v-.02c0-32.79,36.01-21.21,52.84-10.3,10.08-5.62,16.96-6.57,29.23-3.7,16.5-11.78,48.09-18.15,48.46,15.28-.42,3.66-1.7,6.07-1.55,9.7v.02c1.31,4.96,4.21,17.93,4.21,22.36,3.98,16.14-13.66,25.88-30.24,30.25ZM41.55,36.01c1.7-5.13-12.55-9.3-13.89-4.07-1.7,5.13,12.55,9.3,13.89,4.07Z"/>
    <path class="cls-4" d="m115.8,28.49c2.54,4.77-10.8,11.3-13,6.36-2.54-4.77,10.8-11.29,13-6.36Z"/>
    <path class="cls-4" d="m41.55,36.01c-1.34,5.23-15.59,1.06-13.89-4.07,1.34-5.23,15.59-1.06,13.89,4.07Z"/>
  </g>
  <g>
    <path class="cls-2" d="m3.02,24.5c-6.01,16.64,2.55,48.32,10.6,63.22"/>
    <line class="cls-2" x1="3.17" y1="24.06" x2="3.02" y2="24.48"/>
    <path class="cls-2" d="m20.09,75.22c20.62,0,59.69,19.38,81.93,13.78"/>
    <path class="cls-2" d="m56.47,14.58c-.2-.13-.4-.27-.61-.4C39.03,3.27,3.03-8.31,3.02,24.48v.06"/>
    <path class="cls-2" d="m102.18,89c1.25-.27,2.52-.58,3.79-.91,16.58-4.37,34.22-14.11,30.24-30.25"/>
    <path class="cls-2" d="m122.93,22.82l1.09-.27c-8.76-16.38-35.67-12.86-33.96,8.34"/>
    <path class="cls-2" d="m60.28,36.5c-2.01-31.27-45.65-30.98-50.05-.53"/>
    <path class="cls-2" d="m105.99,88.17c-11.08,25.67-16.07,35.6-28.28,59.14"/>
    <path class="cls-2" d="m13.62,87.72c8.97,17.48,46.27,47.95,64.09,59.6.24.15.47.3.7.45"/>
    <path class="cls-2" d="m132,35.46c-.05-.2-.1-.38-.15-.55"/>
    <path class="cls-2" d="m136.21,57.84c0-4.43-2.9-17.4-4.21-22.36"/>
    <path class="cls-2" d="m71.26,69.65c.4-1.28,1.16-3,2.32-4.01"/>
    <path class="cls-2" d="m91.54,70.37c-.53-1.67-1.69-3.12-3.19-4"/>
    <path class="cls-2" d="m133.56,25.68s-.01.05-.01.08c-.42,3.66-1.7,6.07-1.55,9.7v.02"/>
    <path class="cls-2" d="m85.09,10.48c-12.27-2.87-19.15-1.92-29.23,3.7-.09.05-.19.11-.28.16"/>
    <path class="cls-2" d="m27.66,31.94c1.34-5.23,15.59-1.06,13.89,4.07-1.34,5.23-15.59,1.06-13.89-4.07Z"/>
    <path class="cls-2" d="m115.8,28.49c2.54,4.77-10.8,11.3-13,6.36-2.54-4.77,10.8-11.29,13-6.36Z"/>
    <path class="cls-1" d="m133.56,26.52c0-.26,0-.51-.01-.76-.37-33.43-31.96-27.06-48.46-15.28"/>
  </g>
</svg>